<svg width="153" height="175" viewBox="0 0 153 175" fill="none" xmlns="http://www.w3.org/2000/svg">
<path d="M72.489 0.729315L2.58941 41.9523C0.984829 42.8986 0 44.6229 0 46.4862V129.999C0 131.916 1.04259 133.682 2.72137 134.608L74.7668 174.338C78.2736 176.272 82.5687 173.735 82.5687 169.729V141.018C82.5687 139.08 81.5039 137.299 79.797 136.382L55.8636 123.521C54.9914 123.052 54.269 122.347 53.7796 121.486L52.4455 119.139C51.9948 118.346 51.7579 117.449 51.7579 116.537V67.9683C51.7579 66.3562 52.4919 64.8273 53.7887 63.8702C53.9225 63.7714 54.0591 63.6713 54.1972 63.5709C55.7293 62.4568 57.7443 62.4801 59.361 63.4672L89.1138 81.6321C90.7508 82.6315 92.8018 82.6608 94.4667 81.7086L148.35 50.8902C151.868 48.8779 151.887 43.8095 148.384 41.7714L77.8064 0.713473C76.1615 -0.243463 74.1282 -0.237404 72.489 0.729315Z" fill="#5F3FC4"/>
<path d="M152 135.367V70.2918C152 66.2964 147.729 63.7462 144.202 65.6355L94.0241 92.5145C92.2382 93.4712 90.0691 93.3189 88.3721 92.2127C81.3749 87.6518 71.2186 82.3826 65.7776 79.6427C64.033 78.7642 62 80.0321 62 81.9826V112.666C62 114.615 63.0754 116.399 64.7978 117.318L88.3066 129.865C90.0291 130.784 91.1045 132.565 91.1045 134.515V165.712C91.1045 169.827 95.608 172.357 99.1363 170.23L149.444 139.89C151.03 138.933 152 137.217 152 135.367Z" fill="#ACB5BD" stroke="#ACB5BD"/>
</svg>
